<?xml version="1.0" encoding="UTF-8" standalone="no"?>
<!-- Created with Inkscape (http://www.inkscape.org/) -->

<svg
   version="1.1"
   id="svg2"
   xml:space="preserve"
   width="2533.3333"
   height="756"
   viewBox="0 0 2533.3333 756"
   sodipodi:docname="AIR-Lab2.eps"
   inkscape:version="1.1.2 (0a00cf5339, 2022-02-04)"
   xmlns:inkscape="http://www.inkscape.org/namespaces/inkscape"
   xmlns:sodipodi="http://sodipodi.sourceforge.net/DTD/sodipodi-0.dtd"
   xmlns="http://www.w3.org/2000/svg"
   xmlns:svg="http://www.w3.org/2000/svg"><defs
     id="defs6" /><sodipodi:namedview
     id="namedview4"
     pagecolor="#ffffff"
     bordercolor="#666666"
     borderopacity="1.0"
     inkscape:pageshadow="2"
     inkscape:pageopacity="0.0"
     inkscape:pagecheckerboard="0"
     showgrid="false"
     inkscape:zoom="0.49539475"
     inkscape:cx="1266.6666"
     inkscape:cy="378.48604"
     inkscape:window-width="1452"
     inkscape:window-height="945"
     inkscape:window-x="1590"
     inkscape:window-y="337"
     inkscape:window-maximized="0"
     inkscape:current-layer="g10" /><g
     id="g8"
     inkscape:groupmode="layer"
     inkscape:label="ink_ext_XXXXXX"
     transform="matrix(1.3333333,0,0,-1.3333333,0,756)"><g
       id="g10"
       transform="scale(0.1)"><g
         id="g14"
         transform="scale(10)"><text
           transform="matrix(1,9.64997e-4,9.64997e-4,-1,717.254,286.33)"
           style="font-variant:normal;font-weight:normal;font-size:260.468px;font-family:Lato;-inkscape-font-specification:Lato-Regular;writing-mode:lr-tb;fill:#171717;fill-opacity:1;fill-rule:nonzero;stroke:none"
           id="text18"><tspan
             x="0 176.33691 249.26799 412.58151 509.21518 642.83533 772.28796"
             y="0"
             sodipodi:role="line"
             id="tspan16">AIR-Lab</tspan></text></g><path
         d="m 2694.41,4064.14 35.98,62.42 -401.48,231.41 -841.49,-485.86 V 3419.69 L 1045,3164.26 v -971.68 l 442.42,-255.43 v -393.44 l 841.56,-485.9 437.47,253.09 v 1132.58 l -1.45,264.37 1.45,211.25 v 1186.64 l -36.06,20.82 -35.98,-62.42 h -72.03 v -1144.57 0.51 l -1.36,-211.99 1.36,-265.71 v -1048.4 l -293.47,-169.8 -697.5,402.7 v 393.43 l -442.35,255.39 v 805.43 l 442.35,255.39 v 452.43 l 697.57,402.73 329.46,-189.92 35.97,62.38 h -72.03 z"
         style="fill:#171717;fill-opacity:1;fill-rule:nonzero;stroke:none"
         id="path20" /><path
         d="m 1524.61,3315.08 244.26,-135 69.65,126.05 -244.26,135"
         style="fill:#171717;fill-opacity:1;fill-rule:nonzero;stroke:none"
         id="path22" /><path
         d="m 1850.66,3340.82 c 52.35,-28.91 71.33,-94.8 42.43,-147.15 -28.95,-52.34 -94.85,-71.33 -147.19,-42.38 -52.35,28.91 -71.33,94.8 -42.38,147.15 28.9,52.34 94.8,71.33 147.14,42.38 z"
         style="fill:#171717;fill-opacity:1;fill-rule:nonzero;stroke:none"
         id="path24" /><path
         d="m 1738.95,3138.67 c -59.18,32.74 -80.75,107.54 -48.01,166.76 32.73,59.22 107.54,80.74 166.76,48.01 59.21,-32.7 80.74,-107.54 48,-166.76 -32.69,-59.14 -107.54,-80.74 -166.75,-48.01 -59.15,32.74 59.21,-32.73 0,0 z m 104.8,189.57 c -45.31,25.04 -102.54,8.6 -127.62,-36.76 -25.04,-45.35 -8.55,-102.57 36.76,-127.61 45.35,-25.04 102.58,-8.56 127.62,36.75 25.08,45.36 8.59,102.58 -36.76,127.62 -45.31,25.04 45.35,-25.04 0,0 z"
         style="fill:#171717;fill-opacity:1;fill-rule:nonzero;stroke:none"
         id="path26" /><path
         d="m 1590.55,1913.79 241.13,115.51 -62.19,129.88 -241.21,-115.51"
         style="fill:#171717;fill-opacity:1;fill-rule:nonzero;stroke:none"
         id="path28" /><path
         d="m 1892.73,2138.28 c 25.82,-53.94 3.05,-118.59 -50.89,-144.45 -53.95,-25.82 -118.64,-3.05 -144.46,50.9 -25.86,53.94 -3.04,118.63 50.9,144.45 53.95,25.86 118.6,3.05 144.45,-50.9 z"
         style="fill:#171717;fill-opacity:1;fill-rule:nonzero;stroke:none"
         id="path30" /><path
         d="m 1848.05,1980.94 c -61.02,-29.22 -134.46,-3.36 -163.64,57.65 -29.21,61.06 -3.36,134.46 57.66,163.68 61.02,29.21 134.45,3.35 163.63,-57.66 29.26,-61.02 3.4,-134.41 -57.65,-163.67 -60.98,-29.22 61.05,29.26 0,0 z m -93.56,195.35 c -46.72,-22.34 -66.48,-78.56 -44.1,-125.24 22.38,-46.67 78.56,-66.48 125.23,-44.06 46.72,22.35 66.53,78.56 44.11,125.24 -22.35,46.64 -78.52,66.44 -125.24,44.06 -46.72,-22.38 46.72,22.38 0,0 z"
         style="fill:#171717;fill-opacity:1;fill-rule:nonzero;stroke:none"
         id="path32" /><path
         d="m 2055,3574.65 115.59,-89.1 v -363.71 l -314.61,-211.33 v -527.23 l 314.61,-142.54 v -375.08 l -129.57,-124.21 99.6,-103.95 173.99,166.72 v 529.37 L 2000,2476.13 v 357.62 l 314.61,211.37 v 511.29 l -171.64,132.34 z"
         style="fill:#171717;fill-opacity:1;fill-rule:nonzero;stroke:none"
         id="path34" /><path
         d="m 2169.92,3713.71 c 47.38,-36.52 56.17,-104.49 19.69,-151.87 -36.52,-47.39 -104.53,-56.18 -151.91,-19.65 -47.35,36.48 -56.18,104.49 -19.65,151.87 36.52,47.39 104.53,56.17 151.87,19.65 z"
         style="fill:#171717;fill-opacity:1;fill-rule:nonzero;stroke:none"
         id="path36" /><path
         d="m 2028.91,3530.74 c 53.59,-41.29 130.78,-31.33 172.07,22.27 41.32,53.59 31.32,130.78 -22.23,172.07 -53.59,41.33 -130.78,31.33 -172.11,-22.23 -41.29,-53.59 -31.33,-130.78 22.27,-172.11 53.59,-41.25 -53.6,41.33 0,0 z m 132.26,171.56 c 40.98,-31.64 48.67,-90.7 17.03,-131.68 -31.64,-41.01 -90.7,-48.67 -131.68,-17.07 -41.01,31.65 -48.67,90.71 -17.03,131.72 31.56,41.02 90.63,48.68 131.68,17.03 40.98,-31.6 -41.05,31.65 0,0 z"
         style="fill:#171717;fill-opacity:1;fill-rule:nonzero;stroke:none"
         id="path38" /><path
         d="m 2173.4,1768.59 c 41.4,-43.2 39.92,-111.75 -3.24,-153.12 -43.21,-41.41 -111.76,-39.92 -153.13,3.24 -41.41,43.2 -39.92,111.76 3.24,153.13 43.21,41.4 111.76,39.92 153.13,-3.25 z"
         style="fill:#171717;fill-opacity:1;fill-rule:nonzero;stroke:none"
         id="path40" /><path
         d="m 2010.35,1782.3 c 48.87,46.8 126.68,45.16 173.48,-3.71 46.83,-48.86 45.15,-126.68 -3.71,-173.47 -48.83,-46.84 -126.64,-45.16 -173.48,3.71 -46.8,48.83 -45.16,126.64 3.71,173.47 48.83,46.8 -48.87,-46.83 0,0 z m 149.88,-156.36 c 37.35,35.82 38.64,95.35 2.82,132.73 -35.82,37.38 -95.35,38.67 -132.74,2.85 -37.42,-35.82 -38.67,-95.39 -2.85,-132.77 35.82,-37.38 95.35,-38.63 132.77,-2.81 37.35,35.82 -37.42,-35.82 0,0 z"
         style="fill:#171717;fill-opacity:1;fill-rule:nonzero;stroke:none"
         id="path42" /><path
         d="m 1117.03,2583.83 h 276.598 v 144.02 H 1117.03 Z"
         style="fill:#171717;fill-opacity:1;fill-rule:nonzero;stroke:none"
         id="path44" /><path
         d="m 1495.78,2655.82 c 0,-59.8 -48.51,-108.28 -108.32,-108.28 -59.8,0 -108.28,48.48 -108.28,108.28 0,59.8 48.48,108.28 108.28,108.28 59.81,0 108.32,-48.48 108.32,-108.28 z"
         style="fill:#171717;fill-opacity:1;fill-rule:nonzero;stroke:none"
         id="path46" /><path
         d="m 1387.46,2533.12 c -67.62,0 -122.69,55.04 -122.69,122.7 0,67.66 55.07,122.7 122.69,122.7 67.66,0 122.7,-55.04 122.7,-122.7 0,-67.66 -55,-122.7 -122.7,-122.7 -67.62,0 67.7,0 0,0 z m 0,216.61 c -51.76,0 -93.91,-42.11 -93.91,-93.91 0,-51.76 42.11,-93.91 93.91,-93.91 51.76,0 93.91,42.11 93.91,93.91 0,51.8 -42.11,93.91 -93.91,93.91 -51.76,0 51.8,0 0,0 z"
         style="fill:#171717;fill-opacity:1;fill-rule:nonzero;stroke:none"
         id="path48" /><path
         d="m 2413.32,2583.83 h 276.602 v 144.02 H 2413.32 Z"
         style="fill:#171717;fill-opacity:1;fill-rule:nonzero;stroke:none"
         id="path50" /><path
         d="m 2527.77,2655.82 c 0,-59.8 -48.47,-108.28 -108.28,-108.28 -59.84,0 -108.32,48.48 -108.32,108.28 0,59.8 48.48,108.28 108.32,108.28 59.81,0 108.28,-48.48 108.28,-108.28 z"
         style="fill:#171717;fill-opacity:1;fill-rule:nonzero;stroke:none"
         id="path52" /><path
         d="m 2419.49,2533.12 c 67.62,0 122.7,55.04 122.7,122.7 0,67.66 -55.08,122.7 -122.7,122.7 -67.65,0 -122.69,-55.04 -122.69,-122.7 0,-67.66 55,-122.7 122.69,-122.7 67.62,0 -67.69,0 0,0 z m 0,216.61 c 51.76,0 93.87,-42.11 93.87,-93.91 0,-51.76 -42.07,-93.91 -93.87,-93.91 -51.79,0 -93.9,42.11 -93.9,93.91 0,51.8 42.07,93.91 93.9,93.91 51.76,0 -51.83,0 0,0 z"
         style="fill:#171717;fill-opacity:1;fill-rule:nonzero;stroke:none"
         id="path54" /><path
         d="m 2694.41,4064.14 35.98,-62.38 329.45,189.92 697.58,-402.73 V 3336.52 L 4199.8,3081.13 V 2275.7 l -442.38,-255.39 v -393.43 l -697.5,-402.7 -293.47,169.8 v 1048.79 l 1.44,265.39 -1.44,211.92 v -0.51 1144.57 h -72.04 l 35.98,-62.38 -35.98,62.38 h -72.03 V 2918.98 l 1.45,-211.21 -1.45,-264.61 V 1310.9 l 437.46,-253.09 841.57,485.9 v 393.44 l 442.42,255.39 v 971.72 l -442.42,255.43 v 452.42 l -841.49,485.86 -437.54,-252.23 v -41.6 z"
         style="fill:#171717;fill-opacity:1;fill-rule:nonzero;stroke:none"
         id="path56" /><path
         d="m 3794.61,3441.13 -244.3,-135 69.69,-126.05 244.26,135"
         style="fill:#171717;fill-opacity:1;fill-rule:nonzero;stroke:none"
         id="path58" /><path
         d="m 3685.2,3298.4 c 28.94,-52.35 9.96,-118.24 -42.39,-147.15 -52.34,-28.95 -118.24,-9.96 -147.19,42.38 -28.9,52.35 -9.92,118.25 42.43,147.19 52.34,28.91 118.24,9.92 147.15,-42.42 z"
         style="fill:#171717;fill-opacity:1;fill-rule:nonzero;stroke:none"
         id="path60" /><path
         d="m 3531.13,3353.44 c 59.22,32.73 134.03,11.21 166.76,-48.01 32.73,-59.22 11.21,-134.02 -48.01,-166.76 -59.22,-32.73 -134.06,-11.17 -166.76,48.01 -32.73,59.26 -11.21,134.06 48.01,166.76 59.22,32.73 -59.22,-32.7 0,0 z m 104.81,-189.53 c 45.31,25.04 61.79,82.26 36.76,127.61 -25.04,45.36 -82.27,61.8 -127.62,36.76 -45.35,-25.04 -61.8,-82.26 -36.76,-127.62 25.04,-45.31 82.3,-61.79 127.62,-36.75 45.31,25 -45.32,-25.04 0,0 z"
         style="fill:#171717;fill-opacity:1;fill-rule:nonzero;stroke:none"
         id="path62" /><path
         d="m 3860.55,2043.67 -241.21,115.51 -62.19,-129.88 241.13,-115.51"
         style="fill:#171717;fill-opacity:1;fill-rule:nonzero;stroke:none"
         id="path64" /><path
         d="m 3640.59,2189.49 c 53.94,-25.82 76.71,-90.51 50.86,-144.45 -25.83,-53.95 -90.51,-76.72 -144.46,-50.9 -53.94,25.86 -76.72,90.55 -50.9,144.45 25.86,53.95 90.55,76.76 144.5,50.9 z"
         style="fill:#171717;fill-opacity:1;fill-rule:nonzero;stroke:none"
         id="path66" /><path
         d="m 3646.76,2202.27 c 61.05,-29.22 86.87,-102.66 57.69,-163.68 -29.22,-61.01 -102.69,-86.87 -163.67,-57.65 -61.01,29.22 -86.87,102.65 -57.66,163.67 29.22,61.01 102.66,86.87 163.64,57.66 61.05,-29.22 -60.98,29.21 0,0 z m -93.56,-195.32 c 46.72,-22.38 102.85,-2.57 125.24,44.07 22.38,46.71 2.58,102.89 -44.1,125.23 -46.72,22.38 -102.86,2.62 -125.28,-44.1 -22.34,-46.68 -2.54,-102.85 44.14,-125.2 46.72,-22.38 -46.68,22.35 0,0 z"
         style="fill:#171717;fill-opacity:1;fill-rule:nonzero;stroke:none"
         id="path68" /><path
         d="m 3245.9,3688.75 -171.68,-132.34 v -511.29 l 314.61,-211.37 v -357.62 l -314.61,-142.54 v -529.37 l 173.98,-166.72 99.69,103.95 -129.61,124.21 v 375.08 l 314.57,142.54 v 527.23 l -314.57,211.33 v 363.71 l 115.55,89.1 -87.89,114.1 z"
         style="fill:#171717;fill-opacity:1;fill-rule:nonzero;stroke:none"
         id="path70" /><path
         d="m 3370.74,3694.06 c 36.53,-47.38 27.7,-115.39 -19.65,-151.87 -47.38,-36.53 -115.39,-27.74 -151.91,19.65 -36.52,47.38 -27.7,115.35 19.65,151.87 47.38,36.52 115.39,27.74 151.91,-19.65 z"
         style="fill:#171717;fill-opacity:1;fill-rule:nonzero;stroke:none"
         id="path72" /><path
         d="m 3210.12,3725.12 c -53.6,-41.29 -63.56,-118.48 -22.27,-172.07 41.29,-53.6 118.48,-63.56 172.07,-22.27 53.6,41.29 63.56,118.52 22.27,172.11 -41.29,53.56 -118.52,63.56 -172.07,22.23 -53.6,-41.29 53.55,41.33 0,0 z m 132.18,-171.57 c -40.97,-31.6 -100.03,-23.94 -131.68,17.07 -31.64,40.98 -23.94,100.04 17.04,131.68 41.01,31.65 100.07,23.95 131.72,-17.03 31.6,-41.01 23.98,-100.07 -17.08,-131.72 -40.97,-31.56 41.06,31.65 0,0 z"
         style="fill:#171717;fill-opacity:1;fill-rule:nonzero;stroke:none"
         id="path74" /><path
         d="m 3368.55,1771.95 c 43.21,-41.36 44.65,-109.92 3.25,-153.12 -41.37,-43.17 -109.92,-44.61 -153.09,-3.24 -43.2,41.36 -44.65,109.92 -3.28,153.12 41.37,43.17 109.96,44.65 153.12,3.24 z"
         style="fill:#171717;fill-opacity:1;fill-rule:nonzero;stroke:none"
         id="path76" /><path
         d="m 3208.71,1605.12 c -48.87,46.79 -50.51,124.61 -3.71,173.47 46.84,48.87 124.61,50.47 173.48,3.71 48.86,-46.83 50.5,-124.68 3.71,-173.47 -46.84,-48.87 -124.61,-50.51 -173.48,-3.71 -48.87,46.79 48.87,-46.8 0,0 z m 149.84,156.4 c -37.34,35.82 -96.91,34.57 -132.73,-2.85 -35.82,-37.38 -34.57,-96.91 2.85,-132.73 37.38,-35.82 96.92,-34.57 132.74,2.81 35.82,37.38 34.53,96.95 -2.86,132.77 -37.34,35.82 37.39,-35.82 0,0 z"
         style="fill:#171717;fill-opacity:1;fill-rule:nonzero;stroke:none"
         id="path78" /><path
         d="m 3995.23,2583.83 h 276.559 v 144.02 H 3995.23 Z"
         style="fill:#171717;fill-opacity:1;fill-rule:nonzero;stroke:none"
         id="path80" /><path
         d="m 4109.69,2655.82 c 0,-59.8 -48.52,-108.28 -108.32,-108.28 -59.81,0 -108.28,48.48 -108.28,108.28 0,59.8 48.47,108.28 108.28,108.28 59.8,0 108.32,-48.48 108.32,-108.28 z"
         style="fill:#171717;fill-opacity:1;fill-rule:nonzero;stroke:none"
         id="path82" /><path
         d="m 4001.37,2778.52 c 67.65,0 122.69,-55.04 122.69,-122.7 0,-67.66 -55.04,-122.7 -122.69,-122.7 -67.66,0 -122.7,55.04 -122.7,122.7 0,67.7 55.04,122.7 122.7,122.7 67.65,0 -67.66,0 0,0 z m 0,-216.57 c 51.75,0 93.9,42.11 93.9,93.91 0,51.76 -42.11,93.91 -93.9,93.91 -51.76,0 -93.91,-42.11 -93.91,-93.91 0,-51.8 42.11,-93.91 93.91,-93.91 51.75,0 -51.8,0 0,0 z"
         style="fill:#171717;fill-opacity:1;fill-rule:nonzero;stroke:none"
         id="path84" /><path
         d="m 2698.91,2583.83 h 276.602 v 144.02 H 2698.91 Z"
         style="fill:#171717;fill-opacity:1;fill-rule:nonzero;stroke:none"
         id="path86" /><path
         d="m 3077.66,2655.82 c 0,-59.8 -48.48,-108.28 -108.28,-108.28 -59.85,0 -108.33,48.48 -108.33,108.28 0,59.8 48.48,108.28 108.33,108.28 59.8,0 108.28,-48.48 108.28,-108.28 z"
         style="fill:#171717;fill-opacity:1;fill-rule:nonzero;stroke:none"
         id="path88" /><path
         d="m 2969.38,2778.52 c -67.66,0 -122.7,-55.04 -122.7,-122.7 0,-67.66 55.04,-122.7 122.7,-122.7 67.61,0 122.69,55.04 122.69,122.7 0,67.7 -55.04,122.7 -122.69,122.7 -67.7,0 67.65,0 0,0 z m 0,-216.57 c -51.8,0 -93.91,42.11 -93.91,93.91 0,51.76 42.07,93.91 93.91,93.91 51.79,0 93.86,-42.11 93.86,-93.91 0,-51.8 -42.07,-93.91 -93.86,-93.91 -51.84,0 51.79,0 0,0 z"
         style="fill:#171717;fill-opacity:1;fill-rule:nonzero;stroke:none"
         id="path90" /><path
         d="m 5602.54,762.73 h 60.5898 V 4950.39 H 5602.54 Z"
         style="fill:#171717;fill-opacity:1;fill-rule:nonzero;stroke:none"
         id="path92" /><g
         id="g94"
         transform="scale(10)"><text
           transform="matrix(1,9.65002e-4,9.65002e-4,-1,723.062,95.6066)"
           style="font-variant:normal;font-weight:bold;font-size:135.64px;font-family:Lato;-inkscape-font-specification:Lato-Bold;writing-mode:lr-tb;fill:#171717;fill-opacity:1;fill-rule:nonzero;stroke:none"
           id="text98"><tspan
             x="0 94.269844"
             y="0"
             sodipodi:role="line"
             id="tspan96">AI</tspan></text></g><g
         id="g100"
         transform="scale(10)"><text
           transform="matrix(1,9.65002e-4,9.65002e-4,-1,892.205,95.7699)"
           style="font-variant:normal;font-weight:normal;font-size:135.64px;font-family:Lato;-inkscape-font-specification:Lato-Regular;writing-mode:lr-tb;fill:#4c4c4c;fill-opacity:1;fill-rule:nonzero;stroke:none"
           id="text104"><tspan
             x="0 45.16814 122.07606"
             y="0"
             sodipodi:role="line"
             id="tspan102">for</tspan></text></g><g
         id="g106"
         transform="scale(10)"><text
           transform="matrix(1,9.65002e-4,9.65002e-4,-1,1098.58,95.9691)"
           style="font-variant:normal;font-weight:bold;font-size:135.64px;font-family:Lato;-inkscape-font-specification:Lato-Bold;writing-mode:lr-tb;fill:#171717;fill-opacity:1;fill-rule:nonzero;stroke:none"
           id="text110"><tspan
             x="0"
             y="0"
             id="tspan108">R</tspan></text></g><g
         id="g112"
         transform="scale(10)"><text
           transform="matrix(1,9.65002e-4,9.65002e-4,-1,1185.8,96.0535)"
           style="font-variant:normal;font-weight:normal;font-size:135.64px;font-family:Lato;-inkscape-font-specification:Lato-Regular;writing-mode:lr-tb;fill:#4c4c4c;fill-opacity:1;fill-rule:nonzero;stroke:none"
           id="text116"><tspan
             x="0 76.907913 152.86635"
             y="0"
             sodipodi:role="line"
             id="tspan114">obo</tspan></text></g><path
         d="m 14450.4,952.461 c -54.3,0.121 -95.9,15.039 -125.1,45.269 -29.3,30.36 -43.8,73.83 -43.8,130.79 l -0.5,420.31 -82.7,-0.08 c -7.3,0.08 -13.3,2.15 -18.3,6.41 -5,4.57 -7.4,10.97 -7.5,20 v 48.16 l 112.5,14.34 27.6,212.18 c 1.2,6.84 4.4,12.35 9.2,16.64 4.5,4.46 10.9,6.41 18.6,6.45 l 61,0.04 0.2,-236.56 474.6,0.47 0.6,-673.169 -120.7,-0.121 -0.5,585.71 -353.9,-0.35 0.4,-412.15 c 0,-28.87 7.1,-50.39 21.1,-64.38 14,-13.83 32.1,-21.01 54.3,-20.97 12.4,0.19 23.6,1.71 32.8,5.11 9.2,3.56 17.3,7.11 24.1,11.21 6.6,4.14 12.5,7.82 17.2,11.21 4.6,3.4 9,5.08 12.6,5.08 6.3,0.32 12,-3.83 16.9,-11.48 l 35.4,-57.62 c -21,-19.409 -45.9,-34.73 -75.3,-45.819 -29.4,-10.821 -59.6,-16.641 -90.8,-16.68 z m 455.4,918.319 c -0.3,-11.68 -2.4,-22.73 -7.1,-32.89 -5,-10.16 -11.1,-19.1 -19,-26.8 -8.1,-7.38 -17,-13.82 -27.4,-18.36 -10.5,-4.45 -21.5,-6.79 -33.2,-6.79 -11.8,0 -22.7,2.22 -32.9,6.76 -10.2,4.6 -19.1,10.58 -26.8,18.28 -7.8,7.69 -13.8,16.6 -18.3,26.75 -4.6,10.24 -6.8,21.1 -6.8,32.86 -0.1,11.87 2.2,22.93 6.7,33.55 4.5,10.9 10.6,19.88 18.3,27.81 7.6,7.93 16.6,14.14 26.7,18.67 10.2,4.65 21.2,6.8 32.9,6.84 11.5,0.2 22.8,-2.26 33.2,-6.76 10.4,-4.41 19.6,-10.74 27.5,-18.63 7.7,-7.58 14.2,-17.15 19,-27.77 4.6,-10.35 7.2,-21.76 7.2,-33.52"
         style="fill:#4c4c4c;fill-opacity:1;fill-rule:nonzero;stroke:none"
         id="path118" /><g
         id="g120"
         transform="scale(10)"><text
           transform="matrix(1,9.65002e-4,9.65002e-4,-1,1497.91,96.3547)"
           style="font-variant:normal;font-weight:normal;font-size:135.64px;font-family:Lato;-inkscape-font-specification:Lato-Regular;writing-mode:lr-tb;fill:#4c4c4c;fill-opacity:1;fill-rule:nonzero;stroke:none"
           id="text124"><tspan
             x="0 64.70031"
             y="0"
             sodipodi:role="line"
             id="tspan122">cs</tspan></text></g></g></g></svg>
